# xmcd
# 
# Track frame offsets:
#     150
#     24090
#     41451
#     52545
#     75429
#     90735
#     116103
#     129994
#     142128
#     175803
#     199970
# 
# Disc length: 3020
# 
# Revision: 1
# Processed by: cddbd v1.5.2PL0 Copyright (c) Steve Scherf et al.
# Submitted via: fre:ac v1.0.31
# 
DISCID=850bca0b
DTITLE=Heartless Bastards - The Mountain
DYEAR=2009
DGENRE=Rock/Pop
TTITLE0=The Mountain
TTITLE1=Could Be So Happy
TTITLE2=Early in the Morning
TTITLE3=Hold Your Head High
TTITLE4=Out at Sea
TTITLE5=Nothing Seems the Same
TTITLE6=Wide Awake
TTITLE7=So Quiet
TTITLE8=Had to Go
TTITLE9=Witchypoo
TTITLE10=Sway
EXTD=
EXTT0=
EXTT1=
EXTT2=
EXTT3=
EXTT4=
EXTT5=
EXTT6=
EXTT7=
EXTT8=
EXTT9=
EXTT10=
PLAYORDER=
